<?xml version="1.0" encoding="UTF-8"?>
<svg version="1.1" xmlns="http://www.w3.org/2000/svg" width="1500" height="1100">
<path d="M0 0 C495 0 990 0 1500 0 C1500 363 1500 726 1500 1100 C1005 1100 510 1100 0 1100 C0 737 0 374 0 0 Z " fill="#FEFEFE" transform="translate(0,0)"/>
<path d="M0 0 C47.41532133 -0.04584145 94.8306403 -0.08105165 142.24597944 -0.10213066 C147.85189323 -0.10463188 153.45780698 -0.10722054 159.0637207 -0.10986328 C160.73767873 -0.11065021 160.73767873 -0.11065021 162.4454541 -0.11145304 C180.48258264 -0.12014055 198.51969834 -0.13590136 216.55681928 -0.15430559 C235.08347319 -0.17305077 253.61012042 -0.18412647 272.13678342 -0.18817699 C283.55605294 -0.19091249 294.97528618 -0.19953234 306.39454452 -0.21583293 C314.23974791 -0.22645689 322.08493273 -0.22958846 329.93014278 -0.22700275 C334.44708854 -0.22572983 338.96397118 -0.22759247 343.48090553 -0.23841095 C365.82842408 -0.28923415 387.87951643 -0.18031512 409.8359375 4.54052734 C412.21959718 5.04662476 414.60941117 5.5160494 417 5.98828125 C437.33015939 10.15249066 456.79686853 17.01794381 475 27 C476.3683094 27.72820324 477.73680384 28.4560589 479.10546875 29.18359375 C487.63781117 33.78302044 495.46206197 38.86927494 503 45 C503.55397461 45.44714355 504.10794922 45.89428711 504.67871094 46.35498047 C535.62866843 71.4964267 554.88135636 104.96051508 559.77938175 144.7617569 C560.13927207 148.41296 560.16415481 152.05006512 560.17700195 155.71655273 C560.18685875 156.9648159 560.18685875 156.9648159 560.19691467 158.23829651 C560.21648956 160.97006349 560.22827784 163.70177577 560.23828125 166.43359375 C560.24235678 167.3759041 560.2464323 168.31821445 560.25063133 169.28907967 C560.27142988 174.28182881 560.28575554 179.27455102 560.29516602 184.26733398 C560.30618759 189.37740047 560.34055629 194.48702643 560.38033772 199.59693813 C560.40671279 203.56682544 560.41487643 207.53661127 560.41844749 211.50657845 C560.42326357 213.3877057 560.43473163 215.26882999 560.45348549 217.14986992 C560.59941723 232.76333639 558.39859292 246.83692952 552.8125 261.5 C552.51843262 262.28060791 552.22436523 263.06121582 551.92138672 263.86547852 C545.01989609 281.61344779 535.04612624 296.15364669 522 310 C521.45085938 310.60199219 520.90171875 311.20398438 520.3359375 311.82421875 C516.16772079 316.22856597 511.46937509 319.83667429 506.61816406 323.44921875 C503.50441937 325.77753114 500.6711187 328.17290356 498 331 C498.53625 331.12375 499.0725 331.2475 499.625 331.375 C508.34736409 333.67035897 516.08243115 337.7837831 524 342 C525.03382813 342.5465625 526.06765625 343.093125 527.1328125 343.65625 C547.10349202 354.75711818 564.78897223 370.38614294 578 389 C578.76699219 390.07378906 579.53398438 391.14757812 580.32421875 392.25390625 C597.49900876 417.64142307 604.49677667 444.44091686 604.43359375 474.7578125 C604.43817348 476.71866025 604.44348424 478.67950641 604.44947815 480.64035034 C604.45834476 484.72644619 604.45606259 488.81234596 604.44604492 492.8984375 C604.4368696 497.03894287 604.44374866 501.17888368 604.46655273 505.31933594 C604.71215381 550.17049435 604.71215381 550.17049435 600 568 C599.83279449 568.66312195 599.66558899 569.3262439 599.49331665 570.00946045 C598.48230291 573.94872948 597.27690771 577.78630086 595.9375 581.625 C595.55247314 582.74688721 595.16744629 583.86877441 594.77075195 585.0246582 C582.94113969 618.2764169 560.25359646 645.51959754 531 665 C530.33645508 665.4448877 529.67291016 665.88977539 528.98925781 666.34814453 C489.0307096 692.81480647 438.63664789 703.17475902 391.24443054 703.14044189 C389.27824909 703.14489858 389.27824909 703.14489858 387.27234679 703.1494453 C383.6768889 703.15741492 380.08145107 703.15929916 376.4859854 703.16004276 C372.5915224 703.16191093 368.6970694 703.16946656 364.8026123 703.17617798 C356.30877054 703.18968739 347.81493354 703.19577363 339.32108283 703.20018864 C334.00847065 703.20296208 328.69586025 703.20720123 323.38324928 703.21169281 C308.64595371 703.22387288 293.90865956 703.23417657 279.17135906 703.2375679 C277.76010662 703.23789725 277.76010662 703.23789725 276.32034402 703.23823325 C274.90593088 703.23856067 274.90593088 703.23856067 273.46294373 703.2388947 C271.55252564 703.23933815 269.64210755 703.23978471 267.73168945 703.24023438 C266.31027289 703.24056652 266.31027289 703.24056652 264.86014084 703.24090537 C249.50479345 703.24485367 234.1494935 703.26231434 218.79416444 703.2855939 C202.99267386 703.30935483 187.19120705 703.32177181 171.38969833 703.32293582 C162.53223536 703.3238496 153.67483434 703.32952731 144.81738853 703.34775543 C137.27684816 703.3632202 129.73638891 703.36823928 122.19583567 703.36001733 C118.35569085 703.35613407 114.51570912 703.35692556 110.67558479 703.37107468 C79.71844844 703.47861319 53.14127745 700.19333268 29 679 C28.23945313 678.33484375 27.47890625 677.6696875 26.6953125 676.984375 C10.5490518 661.89963317 1.26160476 639.03941839 -0.18430938 617.21850815 C-0.25102604 614.42404048 -0.26134337 611.63587186 -0.24609566 608.84065628 C-0.24840335 607.78001846 -0.25071103 606.71938065 -0.25308865 605.62660229 C-0.25836079 602.0907864 -0.24942772 598.55515455 -0.24050903 595.01934814 C-0.24138167 592.45161482 -0.24313372 589.88388167 -0.24568737 587.31614947 C-0.2498196 581.74300999 -0.24657345 576.16991336 -0.23841095 570.59677887 C-0.22630759 562.30982627 -0.22574243 554.02290051 -0.22749493 545.73594068 C-0.23011885 531.79387466 -0.22345467 517.85182764 -0.21146011 503.90976715 C-0.19961794 490.10938676 -0.19192658 476.30901428 -0.18975449 462.50862885 C-0.18961701 461.64991872 -0.18947953 460.79120859 -0.18933788 459.90647694 C-0.1886612 455.54535661 -0.18805844 451.18423627 -0.18748413 446.82311592 C-0.18328555 415.94945471 -0.1698171 385.07580383 -0.15087891 354.20214844 C-0.13250427 324.21256566 -0.11833987 294.22298572 -0.10986328 264.23339844 C-0.10960023 263.30866209 -0.10933718 262.38392573 -0.10906615 261.43116707 C-0.10642907 252.14441458 -0.10387745 242.85766206 -0.10138843 233.57090952 C-0.09631628 214.65345369 -0.09067378 195.73599804 -0.08468628 176.81854248 C-0.0844117 175.94878683 -0.08413712 175.07903117 -0.08385422 174.18291929 C-0.06545913 116.12194187 -0.0337278 58.06097029 0 0 Z " fill="#FE3715" transform="translate(469,203)"/>
<path d="M0 0 C1.68722672 -0.02409439 1.68722672 -0.02409439 3.40853882 -0.04867554 C8.54268529 -0.09312279 13.67674406 -0.13461072 18.81103516 -0.15722656 C21.52133898 -0.1705718 24.23089092 -0.198438 26.94091797 -0.23925781 C30.84551975 -0.29806238 34.7497557 -0.31588549 38.65478516 -0.33056641 C39.86637299 -0.35323578 41.07796082 -0.37590515 42.32626343 -0.39926147 C50.69038525 -0.37818678 50.69038525 -0.37818678 54.7746582 2.48022461 C57.11200542 6.14161823 57.13220167 9.30618464 56.94384766 13.50537109 C56.93514648 14.5872168 56.93514648 14.5872168 56.92626953 15.69091797 C56.84154054 19.46983082 56.41117834 22.78535554 55.34619141 26.41552734 C54.42153065 30.57435038 54.59743796 31.703323 56.63134766 35.31787109 C71.41293899 64.55883923 66.53395499 101.14892193 56.75634766 131.25537109 C50.20844177 150.52742828 40.38162576 167.89417361 27.24462891 183.42333984 C25.24667765 185.97930446 25.24667765 185.97930446 25.73415947 188.51086044 C26.59331179 191.49492017 27.74990882 194.08818309 29.12307739 196.87457275 C29.67808426 198.00749756 30.23309113 199.14042236 30.80491638 200.30767822 C31.4228523 201.55366419 32.04094534 202.79957224 32.65917969 204.04541016 C33.30849736 205.36449005 33.95736603 206.68379105 34.6058197 208.0032959 C36.73315377 212.32605841 38.87324799 216.64244658 41.01416016 220.95849609 C41.75111742 222.44586987 42.4880137 223.93327386 43.2248497 225.4207077 C46.28929737 231.60492094 49.35678973 237.78760533 52.43293953 243.96600723 C56.84048007 252.81851551 61.22989514 261.67947188 65.59408867 270.55343461 C68.6655713 276.79530801 71.75685319 283.02711841 74.86319053 289.25171828 C76.71791606 292.96953273 78.56371789 296.69118456 80.38867569 300.42371368 C82.10452747 303.93188075 83.84454296 307.42694078 85.60399055 310.91343689 C86.24553451 312.19531015 86.87818347 313.48167939 87.50121498 314.77265167 C88.35261107 316.53332996 89.23931862 318.27680285 90.12771606 320.019104 C90.61404573 320.9998502 91.1003754 321.98059639 91.60144234 322.99106216 C93.43569326 325.52669576 93.43569326 325.52669576 97.03001213 326.14123154 C100.6250724 326.5232194 100.6250724 326.5232194 103.50634766 324.19287109 C104.92285496 316.14064502 100.88210529 310.07998689 97.19384766 303.13037109 C96.00746196 300.84926891 94.82397557 298.56665699 93.64306641 296.28271484 C93.3260376 295.67238907 93.00900879 295.06206329 92.68237305 294.4332428 C89.28238118 287.84648046 86.11327029 281.15237552 82.93006897 274.45892334 C77.79466362 263.67023739 72.53656777 252.94266828 67.27001953 242.2175293 C65.61061667 238.83815241 63.9528841 235.45796004 62.29541016 232.07763672 C61.22258824 229.89074127 60.14967499 227.70389064 59.07666016 225.51708984 C58.5901297 224.52529221 58.10359924 223.53349457 57.60232544 222.51164246 C57.1376889 221.56557632 56.67305237 220.61951019 56.19433594 219.64477539 C55.74863754 218.73682724 55.30293915 217.82887909 54.84373474 216.89341736 C53.09748638 213.3672696 51.31154201 209.86159417 49.51603699 206.36029053 C44.0056886 194.53166581 44.04676675 180.78502475 48.24365234 168.68481445 C53.52128352 154.70840109 63.84256516 145.97735182 76.94384766 139.50537109 C78.40286499 138.76432129 78.40286499 138.76432129 79.89135742 138.00830078 C83.08939033 136.3889026 86.29731854 134.79035653 89.50634766 133.19287109 C91.32050367 132.28274461 93.13373623 131.37079685 94.94688416 130.45866394 C101.78991882 127.01635651 108.64423782 123.59699465 115.50634766 120.19287109 C115.84748327 117.06508528 115.84748327 117.06508528 113.48681641 115.02880859 C112.56513672 114.21669922 111.64345703 113.40458984 110.69384766 112.56787109 C110.20045898 112.12983154 109.70707031 111.69179199 109.19873047 111.24047852 C105.79014336 108.23878203 102.28815873 105.36119059 98.75634766 102.50537109 C88.84177874 94.42841625 88.84177874 94.42841625 86.50634766 91.19287109 C86.25634766 88.50537109 86.25634766 88.50537109 87.50634766 86.19287109 C90.83286993 82.96418771 96.70267296 78.19287109 101.50634766 78.19287109 C101.49587402 77.40227295 101.48540039 76.6116748 101.47460938 75.79711914 C101.43261511 72.15823646 101.40688474 68.51940503 101.38134766 64.88037109 C101.36458984 63.63707031 101.34783203 62.39376953 101.33056641 61.11279297 C101.25452996 46.62784991 103.04147336 34.89558344 113.50634766 24.19287109 C124.1518253 15.85629743 134.23347373 13.80056566 147.50634766 15.19287109 C156.70246823 17.1992974 164.56627136 23.00826571 169.88134766 30.69287109 C174.92036588 38.90046864 176.66391175 46.02498622 176.61987305 55.6550293 C176.62001907 56.4945665 176.6201651 57.3341037 176.62031555 58.19908142 C176.61962091 60.96396501 176.61184954 63.72878057 176.60400391 66.49365234 C176.60213813 68.41464705 176.60071498 70.33564222 176.59971619 72.25663757 C176.59590356 77.30528077 176.58608399 82.35389506 176.57501221 87.40252686 C176.56477111 92.557247 176.56021278 97.71197183 176.55517578 102.86669922 C176.54446059 112.97543586 176.52739924 123.08415107 176.50634766 133.19287109 C175.84696701 133.52145111 175.18758636 133.85003113 174.50822449 134.18856812 C168.1998631 137.33260119 161.89254357 140.47871325 155.58629894 143.62698936 C152.34656811 145.24427933 149.1064819 146.86084746 145.86547852 148.47558594 C127.65030007 157.54620459 127.65030007 157.54620459 109.55712891 166.85693359 C108.44158882 167.43766129 108.44158882 167.43766129 107.30351257 168.03012085 C103.19904659 170.19720859 99.18304249 172.34880295 95.50634766 175.19287109 C94.83927218 178.77787518 94.83927218 178.77787518 95.50634766 182.19287109 C97.35565323 184.45190666 97.35565323 184.45190666 100.17668152 184.52441406 C104.19881555 184.12392038 107.24724863 182.71795974 110.78100586 180.88818359 C111.48253281 180.53705505 112.18405975 180.18592651 112.90684509 179.82415771 C115.21276751 178.66657589 117.50976558 177.49233465 119.80712891 176.31787109 C121.40985901 175.50963742 123.01315452 174.70252406 124.61698914 173.89648438 C128.8288335 171.77630094 133.03343937 169.64214904 137.23651123 167.50463867 C142.35807779 164.90300052 147.48736871 162.31663665 152.61619091 159.7293396 C156.6029554 157.71804344 160.58825709 155.70402086 164.56941223 153.68164062 C165.29869934 153.31202209 166.02798645 152.94240356 166.77937317 152.56158447 C168.1468474 151.86847933 169.51355192 151.17385282 170.87936401 150.47747803 C175.3935477 148.19287109 175.3935477 148.19287109 176.50634766 148.19287109 C176.50634766 155.12287109 176.50634766 162.05287109 176.50634766 169.19287109 C166.60443735 174.4529637 156.68706481 179.64710284 146.63916016 184.62255859 C145.73518494 185.07060852 144.83120972 185.51865845 143.89984131 185.98028564 C140.19665048 187.81375114 136.49215114 189.64448155 132.78417969 191.46826172 C130.02480705 192.82680979 127.26925765 194.19286617 124.51416016 195.56005859 C123.68087189 195.96739227 122.84758362 196.37472595 121.98904419 196.79440308 C117.80208278 198.87860275 113.87169257 200.87437165 110.50634766 204.19287109 C109.92265323 207.77748965 109.92265323 207.77748965 110.50634766 211.19287109 C112.46403319 213.60601213 112.46403319 213.60601213 116.14306641 213.31396484 C123.81113038 212.25962518 130.59456613 207.86947014 137.31884766 204.25537109 C138.79202284 203.47777074 140.26606895 202.7018182 141.7409668 201.92749023 C144.65490542 200.3966645 147.56571794 198.86016232 150.47412109 197.31884766 C155.76356458 194.52207663 161.09401327 191.80958921 166.44384766 189.13037109 C167.65681519 188.51464233 167.65681519 188.51464233 168.89428711 187.88647461 C174.26779078 185.19287109 174.26779078 185.19287109 176.50634766 185.19287109 C176.50634766 192.12287109 176.50634766 199.05287109 176.50634766 206.19287109 C165.49124442 212.03934897 154.45193726 217.78738154 143.24609375 223.26049805 C131.96074121 227.96633754 131.96074121 227.96633754 124.19384766 236.31787109 C124.54410371 239.54022683 125.28218313 240.87973999 127.50634766 243.19287109 C133.74911933 242.72070233 138.35313794 240.58474367 143.86962891 237.72021484 C144.74282272 237.27770889 145.61601654 236.83520294 146.51567078 236.37928772 C149.28833338 234.9724388 152.05385342 233.55222371 154.81884766 232.13037109 C157.60272155 230.70710746 160.38800767 229.28674356 163.17558289 227.8707428 C164.90635089 226.99072172 166.63479377 226.10611004 168.360672 225.21653748 C169.13875717 224.81935013 169.91684235 224.42216278 170.71850586 224.01293945 C171.74606743 223.48451698 171.74606743 223.48451698 172.79438782 222.94541931 C174.50634766 222.19287109 174.50634766 222.19287109 176.50634766 222.19287109 C176.50634766 237.37287109 176.50634766 252.55287109 176.50634766 268.19287109 C165.13134766 273.56787109 165.13134766 273.56787109 161.54785156 275.25292969 C160.6189209 275.69459473 159.68999023 276.13625977 158.73291016 276.59130859 C157.30325928 277.26685791 157.30325928 277.26685791 155.84472656 277.95605469 C153.40139564 279.10152131 153.40139564 279.10152131 151.50634766 281.19287109 C151.88146484 281.69173828 152.25658203 282.19060547 152.64306641 282.70458984 C162.04838667 295.90046739 166.05068062 312.06534334 164.50634766 328.19287109 C161.20483231 347.50772433 152.61838979 362.69831032 137.00634766 374.63037109 C131.80485937 378.19161733 126.44610249 381.0704587 120.50634766 383.19287109 C119.42836914 383.58345703 119.42836914 383.58345703 118.32861328 383.98193359 C110.3365254 386.54280002 102.62077561 386.65319966 94.31494141 386.58398438 C91.98233305 386.56770348 89.65140799 386.58401191 87.31884766 386.60302734 C85.82926052 386.6010481 84.33967442 386.59721107 82.85009766 386.59130859 C82.15638062 386.59738129 81.46266357 386.60345398 80.7479248 386.60971069 C77.84691707 386.56717671 75.94622987 386.50721364 73.54736328 384.79296875 C72.50634766 383.19287109 72.50634766 383.19287109 72.50634766 381.19287109 C71.51634766 381.19287109 70.52634766 381.19287109 69.50634766 381.19287109 C69.08450195 381.93110107 68.66265625 382.66933105 68.22802734 383.42993164 C67.30183449 385.05076913 66.37561779 386.67159303 65.44900513 388.29219055 C63.65526104 391.42984104 61.86399267 394.56886362 60.07714844 397.71044922 C56.66743994 403.69980225 53.23901958 409.67205728 49.70166016 415.58740234 C49.13737305 416.54106689 48.57308594 417.49473145 47.99169922 418.47729492 C46.93631047 420.2570234 45.86834499 422.02936702 44.78662109 423.79321289 C44.32030273 424.5851001 43.85398437 425.3769873 43.37353516 426.19287109 C42.96216309 426.87349609 42.55079102 427.55412109 42.12695312 428.25537109 C41.26904284 430.23994401 41.26904284 430.23994401 42.32275391 432.33544922 C42.71333984 432.94839844 43.10392578 433.56134766 43.50634766 434.19287109 C47.9741912 441.36751036 48.86834214 448.24516858 46.96337891 456.56396484 C44.62958531 463.38483121 40.80035298 467.55096865 34.74462891 471.18896484 C31.10383972 472.82191916 27.45970973 473.09220678 23.50634766 473.19287109 C23.16603516 474.27568359 23.16603516 474.27568359 22.81884766 475.38037109 C20.24851935 480.88821746 15.63043279 484.14022463 10.50634766 487.19287109 C4.25825781 489.21313141 -3.687342 489.39899863 -9.74365234 486.75537109 C-15.61227928 483.29312675 -20.16976293 477.99951666 -23.05615234 471.88037109 C-23.8305511 465.35329582 -23.09171499 458.90715541 -21.68115234 452.50537109 C-21.48231449 448.99256906 -21.92003759 447.93452556 -23.43115234 444.88037109 C-26.28175249 438.9997624 -26.67573696 433.83173064 -24.64599609 427.58349609 C-21.00100121 419.42859228 -15.73971918 414.49129783 -7.49365234 411.19287109 C-3.53365234 410.86287109 0.42634766 410.53287109 4.50634766 410.19287109 C9.45634766 399.30287109 14.40634766 388.41287109 19.50634766 377.19287109 C15.05134766 375.70787109 15.05134766 375.70787109 10.50634766 374.19287109 C-3.37217698 368.58023245 -11.61973931 359.97460057 -17.49365234 346.19287109 C-19.60836083 339.61145162 -19.73600919 333.57178791 -19.61865234 326.69287109 C-19.60962891 325.67966797 -19.60060547 324.66646484 -19.59130859 323.62255859 C-19.56794241 321.14574309 -19.53518403 318.6694373 -19.49365234 316.19287109 C-20.24146973 316.13534668 -20.98928711 316.07782227 -21.75976562 316.01855469 C-23.05116455 315.91921631 -23.05116455 315.91921631 -24.36865234 315.81787109 C-25.27357422 315.74826172 -26.17849609 315.67865234 -27.11083984 315.60693359 C-31.6262367 315.05424068 -36.0444235 314.13030455 -40.49365234 313.19287109 C-41.24431737 317.23441452 -41.99404692 321.27613101 -42.74365234 325.31787109 C-42.96891602 326.53079834 -43.19417969 327.74372559 -43.42626953 328.9934082 C-44.52704537 334.93084403 -45.61952499 340.86939333 -46.68115234 346.81396484 C-46.86129883 347.81991699 -47.04144531 348.82586914 -47.22705078 349.86230469 C-47.56625364 351.76190482 -47.90292422 353.66195922 -48.23681641 355.5625 C-48.38860352 356.41118652 -48.54039062 357.25987305 -48.69677734 358.13427734 C-48.89255371 359.24331421 -48.89255371 359.24331421 -49.09228516 360.37475586 C-49.49365234 362.19287109 -49.49365234 362.19287109 -50.49365234 364.19287109 C-56.81949914 363.47921677 -63.02548867 362.40177179 -69.27490234 361.19677734 C-70.28782349 361.00317123 -71.30074463 360.80956512 -72.34436035 360.61009216 C-74.47590715 360.20200552 -76.60721059 359.79264592 -78.73828125 359.38208008 C-81.98287846 358.75744523 -85.22842898 358.13796034 -88.47412109 357.51904297 C-90.55360728 357.1202625 -92.63303632 356.7211839 -94.71240234 356.32177734 C-96.15492371 356.04667076 -96.15492371 356.04667076 -97.62658691 355.76600647 C-102.96671681 354.73360997 -108.22453032 353.53993935 -113.49365234 352.19287109 C-116.16536605 351.60676739 -116.16536605 351.60676739 -118.49365234 352.19287109 C-119.32896484 353.27568359 -119.32896484 353.27568359 -120.18115234 354.38037109 C-124.35664537 359.45867342 -129.46624922 361.76430327 -135.94287109 362.68115234 C-143.54392709 362.96875987 -149.60330249 362.2503641 -155.49365234 357.19287109 C-158.27626825 354.10959118 -160.6348132 350.91054938 -162.49365234 347.19287109 C-164.40798513 346.42803812 -164.40798513 346.42803812 -166.68115234 345.81787109 C-174.39570634 343.36880633 -179.03077589 339.43920982 -183.07958984 332.45849609 C-185.72446084 326.35045147 -185.50570753 319.17107544 -183.87255859 312.75146484 C-181.11736785 306.49412053 -175.78293068 301.83751026 -169.74365234 298.81787109 C-166.49365234 298.19287109 -166.49365234 298.19287109 -163.77099609 298.14599609 C-157.63047134 297.9907363 -154.15962496 297.52782478 -149.55615234 293.25537109 C-148.88712891 292.54509766 -148.21810547 291.83482422 -147.52880859 291.10302734 C-142.63504114 286.50983677 -137.10482683 286.755315 -130.71240234 286.89208984 C-122.57894118 287.65213415 -118.38160314 291.89292745 -113.15771484 297.87646484 C-109.74527066 302.62665123 -109.26633816 306.39635942 -109.49365234 312.19287109 C-108.31802734 312.29599609 -107.14240234 312.39912109 -105.93115234 312.50537109 C-100.12739945 313.13480522 -94.45663489 314.36735256 -88.75146484 315.57177734 C-85.55524671 316.28650833 -85.55524671 316.28650833 -82.49365234 316.19287109 C-83.36376953 315.33628906 -83.36376953 315.33628906 -84.25146484 314.46240234 C-95.24825122 303.04824619 -98.82224474 291.41295764 -98.87646484 275.82128906 C-98.60835363 262.84303058 -92.2514415 252.51498503 -83.62255859 243.16552734 C-72.56169987 232.65656178 -59.46014165 229.8375408 -44.74365234 229.88037109 C-43.62087891 229.86425781 -42.49810547 229.84814453 -41.34130859 229.83154297 C-40.26236328 229.83089844 -39.18341797 229.83025391 -38.07177734 229.82958984 C-36.60853027 229.82511841 -36.60853027 229.82511841 -35.11572266 229.82055664 C-32.49365234 230.19287109 -32.49365234 230.19287109 -28.49365234 233.19287109 C-34.76365234 220.65287109 -41.03365234 208.11287109 -47.49365234 195.19287109 C-51.68859325 196.03185928 -54.16404481 196.85464878 -57.86083984 198.74755859 C-58.90046875 199.27478516 -59.94009766 199.80201172 -61.01123047 200.34521484 C-62.6731543 201.19792969 -62.6731543 201.19792969 -64.36865234 202.06787109 C-66.70894091 203.25445922 -69.05010525 204.43932147 -71.39208984 205.62255859 C-71.98427307 205.92216492 -72.5764563 206.22177124 -73.18658447 206.53045654 C-79.9902128 209.9641609 -86.8680396 213.23840309 -93.75488281 216.50097656 C-95.48414125 217.32107347 -97.2107549 218.14677675 -98.93432617 218.97875977 C-100.72219756 219.8269029 -102.5257957 220.64232575 -104.34008789 221.43237305 C-105.25056885 221.84447021 -106.1610498 222.25656738 -107.09912109 222.68115234 C-107.92307373 223.03991455 -108.74702637 223.39867676 -109.59594727 223.76831055 C-111.74677326 225.07650066 -111.74677326 225.07650066 -112.17358398 227.76245117 C-112.26661231 229.59954647 -112.31186132 231.43938611 -112.32177734 233.27880859 C-112.66314461 239.06653545 -115.30636086 244.01908141 -119.39208984 248.07958984 C-126.84537879 253.97654067 -134.12798585 255.09589679 -143.49365234 254.19287109 C-145.52281004 253.25344624 -147.53240547 252.26688724 -149.49365234 251.19287109 C-152.55557156 251.42840334 -154.75560292 251.82384638 -157.49365234 253.19287109 C-166.29236166 254.01859612 -172.54818648 253.22103281 -179.43115234 247.61474609 C-184.35495241 243.06023104 -187.11905398 238.84988762 -187.80615234 232.14208984 C-188.0570725 225.34372184 -187.82014728 219.65477216 -183.49365234 214.19287109 C-180.46703838 211.12438698 -177.37200461 208.13204723 -173.49365234 206.19287109 C-173.01131464 204.35469388 -172.60781928 202.49555944 -172.24365234 200.63037109 C-170.35570253 192.72164602 -167.16001113 187.6902209 -160.30615234 183.25537109 C-154.27783858 179.74777236 -148.03544732 179.12421345 -141.23583984 180.72412109 C-137.0225788 182.19796146 -133.83078913 184.16859088 -130.49365234 187.19287109 C-126.71644774 185.85116782 -123.8822761 184.17087807 -120.72802734 181.70849609 C-119.83728516 181.02013672 -118.94654297 180.33177734 -118.02880859 179.62255859 C-116.65015625 178.54361328 -116.65015625 178.54361328 -115.24365234 177.44287109 C-108.81101121 172.43256859 -102.35562031 167.60323356 -95.49365234 163.19287109 C-96.09534379 160.18523865 -97.00292011 158.16157765 -98.79443359 155.68115234 C-99.27066162 155.0147876 -99.74688965 154.34842285 -100.23754883 153.66186523 C-101.01400757 152.59440063 -101.01400757 152.59440063 -101.80615234 151.50537109 C-102.90790983 149.96905258 -104.00946689 148.4325903 -105.11083984 146.89599609 C-105.67512695 146.11289062 -106.23941406 145.32978516 -106.82080078 144.52294922 C-108.88884429 141.64241693 -110.92877935 138.74280521 -112.96655273 135.84082031 C-117.54888974 129.31601239 -122.18815626 122.83505734 -126.86865234 116.38037109 C-131.7038403 109.70261037 -136.49544709 102.99528953 -141.24365234 96.25537109 C-141.85257324 95.39645264 -142.46149414 94.53753418 -143.08886719 93.65258789 C-143.65041504 92.85248291 -144.21196289 92.05237793 -144.79052734 91.22802734 C-145.53834473 90.16660522 -145.53834473 90.16660522 -146.30126953 89.08374023 C-147.49365234 87.19287109 -147.49365234 87.19287109 -148.49365234 84.19287109 C-149.02603516 84.35013672 -149.55841797 84.50740234 -150.10693359 84.66943359 C-156.90114734 86.15949029 -164.24419897 86.34489538 -170.49365234 83.06787109 C-176.27992107 79.30573667 -179.78390414 74.55123802 -182.49365234 68.19287109 C-182.85693359 64.68505859 -182.85693359 64.68505859 -182.80615234 61.06787109 C-182.80228516 59.86904297 -182.79841797 58.67021484 -182.79443359 57.43505859 C-182.51179272 54.3884102 -181.98473705 52.79024445 -180.49365234 50.19287109 C-180.76101946 47.51919991 -181.59679281 46.03197196 -183.05615234 43.75537109 C-185.69883341 37.20611802 -185.54005129 29.40733308 -183.30615234 22.69287109 C-179.88978188 16.09574192 -173.60684735 10.5639361 -166.49365234 8.19287109 C-159.0134379 7.44484965 -152.93226663 8.18978897 -146.49365234 12.19287109 C-143.313153 14.89967905 -141.07476336 17.31196225 -139.49365234 21.19287109 C-137.79208984 21.06912109 -137.79208984 21.06912109 -136.05615234 20.94287109 C-129.62822629 20.95426813 -124.48163695 23.4699511 -119.68115234 27.63037109 C-118.59833984 28.89880859 -118.59833984 28.89880859 -117.49365234 30.19287109 C-116.41083984 31.39943359 -116.41083984 31.39943359 -115.30615234 32.63037109 C-111.45850857 38.07014332 -110.7347071 43.69234013 -111.49365234 50.19287109 C-112.33321434 52.94449915 -113.40735106 55.52238045 -114.49365234 58.19287109 C-114.49365234 63.43126937 -112.09475754 65.40039294 -108.74365234 69.06787109 C-107.54265231 70.4164028 -106.34214224 71.76537101 -105.14208984 73.11474609 C-104.53075195 73.79601562 -103.91941406 74.47728516 -103.28955078 75.17919922 C-100.60573608 78.18845746 -97.98545858 81.25036865 -95.36865234 84.31787109 C-94.8773584 84.89182617 -94.38606445 85.46578125 -93.87988281 86.05712891 C-85.33960504 96.03722256 -76.88656227 106.0886086 -68.49365234 116.19287109 C-68.05794922 115.60119141 -67.62224609 115.00951172 -67.17333984 114.39990234 C-60.61818034 105.70225564 -54.85439254 100.63873078 -43.99365234 98.50537109 C-43.16865234 98.40224609 -42.34365234 98.29912109 -41.49365234 98.19287109 C-42.00927734 97.32662109 -42.52490234 96.46037109 -43.05615234 95.56787109 C-44.76995221 91.54416705 -44.9436171 90.30110457 -43.49365234 86.19287109 C-40.81297628 82.24204927 -37.87008781 78.56930656 -34.49365234 75.19287109 C-31.67138672 74.92163086 -31.67138672 74.92163086 -28.08740234 74.88427734 C-26.78544922 74.85914063 -25.48349609 74.83400391 -24.14208984 74.80810547 C-22.07992935 74.77961317 -20.01783602 74.75559416 -17.95556641 74.73657227 C-5.89366198 74.73402135 -5.89366198 74.73402135 5.50634766 71.19287109 C7.18247953 68.72272638 7.18247953 68.72272638 7.50634766 66.19287109 C7.83634766 65.86287109 8.16634766 65.53287109 8.50634766 65.19287109 C8.78306813 63.16141053 8.78306813 63.16141053 8.81884766 60.81787109 C8.85623047 60.02638672 8.89361328 59.23490234 8.93212891 58.41943359 C8.70880219 56.061811 8.70880219 56.061811 6.76905823 54.57775879 C4.204892 53.00836573 2.85435073 52.8157581 -0.12280273 52.80810547 C-1.03377213 52.79799438 -1.94474152 52.7878833 -2.88331604 52.77746582 C-3.85945358 52.78048706 -4.83559113 52.7835083 -5.84130859 52.78662109 C-6.84955185 52.77578491 -7.8577951 52.76494873 -8.89659119 52.75378418 C-13.20892686 52.70788185 -17.52120382 52.69641729 -21.83374023 52.68164062 C-24.98231656 52.66598197 -28.13038418 52.6329912 -31.27880859 52.59912109 C-32.25697037 52.60214233 -33.23513214 52.60516357 -34.24293518 52.60827637 C-35.15075241 52.59816528 -36.05856964 52.5880542 -36.99389648 52.57763672 C-37.79235489 52.57558228 -38.59081329 52.57352783 -39.41346741 52.57141113 C-42.04755625 52.09207486 -42.9265458 51.34137632 -44.49365234 49.19287109 C-44.80418025 46.36960014 -44.93785908 43.77134375 -44.92724609 40.94677734 C-44.93248795 40.13925522 -44.9377298 39.33173309 -44.94313049 38.4997406 C-44.9495512 36.79256337 -44.94821302 35.0853419 -44.93969727 33.37817383 C-44.93119374 30.76807684 -44.95993447 28.16017329 -44.99169922 25.55029297 C-44.99331153 23.89078842 -44.99273313 22.23127999 -44.98974609 20.57177734 C-45.00098007 19.79250381 -45.01221405 19.01323029 -45.02378845 18.21034241 C-44.98078682 14.86048544 -44.7726743 12.61888324 -42.91796875 9.78710938 C-39.82296679 7.75182611 -36.78979 6.99757015 -33.20849609 6.30615234 C-32.51099747 6.15881149 -31.81349884 6.01147064 -31.09486389 5.85966492 C-28.87629724 5.39403177 -26.65417214 4.94920442 -24.43115234 4.50537109 C-22.20570851 4.04623651 -19.98116342 3.58294013 -17.75672913 3.11894226 C-16.37522527 2.83240273 -14.99295019 2.54955068 -13.60984802 2.27082825 C-2.56783427 0.03332816 -2.56783427 0.03332816 0 0 Z " fill="#FEFDFD" transform="translate(736.49365234375,327.80712890625)"/>
<path d="M0 0 C3.47971446 2.05968393 6.82734173 4.30014232 8.625 8.0078125 C9.0625 11.0703125 9.0625 11.0703125 8.625 14.0078125 C6.9375 15.9453125 6.9375 15.9453125 4.625 17.0078125 C2 16.9453125 2 16.9453125 -0.375 16.0078125 C-0.643125 15.3478125 -0.91125 14.6878125 -1.1875 14.0078125 C-2.16123665 11.8489403 -2.16123665 11.8489403 -4.1640625 11.48828125 C-7.70125105 11.00593736 -9.93231284 10.86025011 -13.375 12.0078125 C-13.89442603 17.29624368 -13.89442603 17.29624368 -12 21.9453125 C-9.10473035 23.83837342 -7.31401961 24.13838168 -3.88110352 24.16552734 C-2.48439171 24.18092056 -2.48439171 24.18092056 -1.0594635 24.19662476 C0.45303734 24.20757675 0.45303734 24.20757675 1.99609375 24.21875 C4.11784634 24.24681242 6.23959103 24.27547684 8.36132812 24.3046875 C11.71687655 24.34601381 15.07227664 24.3828891 18.42797852 24.40917969 C21.65932875 24.43671084 24.89000224 24.482577 28.12109375 24.53125 C29.63055824 24.5361293 29.63055824 24.5361293 31.17051697 24.54110718 C32.57195702 24.56595688 32.57195702 24.56595688 34.00170898 24.59130859 C34.82396469 24.59939545 35.6462204 24.6074823 36.49339294 24.61581421 C39.12840004 25.10038677 40.02318502 25.89250517 41.625 28.0078125 C42 30.5078125 42 30.5078125 41.625 33.0078125 C39.99001335 35.1999013 39.0963445 35.92659217 36.37518311 36.39549255 C35.49694885 36.40089554 34.6187146 36.40629852 33.71386719 36.41186523 C32.71562927 36.42454941 31.71739136 36.43723358 30.68890381 36.45030212 C29.6107843 36.44736649 28.53266479 36.44443085 27.421875 36.44140625 C26.31072327 36.4466481 25.19957153 36.45188995 24.05474854 36.45729065 C21.70105831 36.46371919 19.34733598 36.46236317 16.99365234 36.45385742 C13.40273199 36.44537799 9.81341812 36.47404999 6.22265625 36.50585938 C3.93489631 36.50747228 1.64713356 36.50689215 -0.640625 36.50390625 C-2.24565887 36.52075722 -2.24565887 36.52075722 -3.88311768 36.53794861 C-10.27766847 36.47860531 -14.16888629 35.80149935 -19.375 32.0078125 C-24.91070213 26.17288323 -25.85245153 20.71478165 -25.6796875 12.8828125 C-25.1672183 8.04720565 -23.27553903 5.68475871 -19.71484375 2.54296875 C-13.80000749 -1.84154026 -6.87958566 -2.87403743 0 0 Z " fill="#FEFBFB" transform="translate(674.375,360.9921875)"/>
<path d="M0 0 C2.9375 0.4375 2.9375 0.4375 4.6027832 1.5090332 C6.61430107 4.41537665 6.30747811 7.32620436 6.23046875 10.73046875 C6.22622391 11.43649734 6.22197906 12.14252594 6.21760559 12.86994934 C6.20083034 15.12202303 6.16318243 17.37319742 6.125 19.625 C6.10995157 21.15298185 6.09626344 22.68097776 6.08398438 24.20898438 C6.05093089 27.95216872 5.99915832 31.69468196 5.9375 35.4375 C2.49080375 34.86405667 -0.28438165 33.99888422 -3.375 32.375 C-4.07238281 32.01277344 -4.76976562 31.65054687 -5.48828125 31.27734375 C-6.00777344 31.00019531 -6.52726563 30.72304688 -7.0625 30.4375 C-7.17861395 26.18772954 -7.24972349 21.93836663 -7.3125 17.6875 C-7.34601562 16.4809375 -7.37953125 15.274375 -7.4140625 14.03125 C-7.42695312 12.87109375 -7.43984375 11.7109375 -7.453125 10.515625 C-7.47407227 9.44731445 -7.49501953 8.37900391 -7.51660156 7.27832031 C-6.77472274 2.63719022 -4.5928235 0.65611764 0 0 Z " fill="#E53310" transform="translate(876.0625,375.5625)"/>
<path d="M0 0 C3.375 2.125 3.375 2.125 5 5 C5.5625 8.0625 5.5625 8.0625 5 11 C3.46484375 13.15234375 3.46484375 13.15234375 1 15 C-1.83065284 15.40100915 -4.18346659 15.56122899 -7 15.5 C-7.7115625 15.51546875 -8.423125 15.5309375 -9.15625 15.546875 C-12.64715675 15.52082346 -14.64278032 15.26777323 -17.46484375 13.15234375 C-19 11 -19 11 -19.5625 8.0625 C-19 5 -19 5 -17.375 2.125 C-11.91667474 -1.31172331 -6.26247889 -0.92666752 0 0 Z " fill="#E63B19" transform="translate(755,348)"/>
</svg>
