<svg width="605" height="704" viewBox="0 0 605 704" fill="none" xmlns="http://www.w3.org/2000/svg">
<path d="M0.254663 0.245277C47.67 0.199436 95.0853 0.164226 142.501 0.143147C148.107 0.140645 153.712 0.138057 159.318 0.135414C160.992 0.134627 160.992 0.134627 162.7 0.133824C180.737 0.125137 198.774 0.109376 216.811 0.0909717C235.338 0.0722265 253.865 0.0611508 272.391 0.0571003C283.811 0.0543648 295.23 0.0457449 306.649 0.0294443C314.494 0.0188204 322.34 0.0156888 330.185 0.0182745C334.702 0.0195474 339.219 0.0176848 343.736 0.0068663C366.083 -0.0439569 388.134 0.0649624 410.091 4.7858C412.474 5.2919 414.864 5.76133 417.255 6.23356C437.585 10.3978 457.052 17.2632 475.255 27.2453C476.623 27.9735 477.991 28.7013 479.36 29.4289C487.892 34.0283 495.717 39.1146 503.255 45.2453C503.809 45.6924 504.363 46.1396 504.933 46.6003C535.883 71.7417 555.136 105.206 560.034 145.007C560.394 148.658 560.419 152.295 560.432 155.962C560.441 157.21 560.441 157.21 560.452 158.484C560.471 161.215 560.483 163.947 560.493 166.679C560.497 167.621 560.501 168.563 560.505 169.534C560.526 174.527 560.54 179.52 560.55 184.513C560.561 189.623 560.595 194.732 560.635 199.842C560.661 203.812 560.669 207.782 560.673 211.752C560.678 213.633 560.689 215.514 560.708 217.395C560.854 233.009 558.653 247.082 553.067 261.745C552.773 262.526 552.479 263.306 552.176 264.111C545.275 281.859 535.301 296.399 522.255 310.245C521.706 310.847 521.156 311.449 520.591 312.069C516.422 316.474 511.724 320.082 506.873 323.694C503.759 326.023 500.926 328.418 498.255 331.245C498.791 331.369 499.327 331.493 499.88 331.62C508.602 333.916 516.337 338.029 524.255 342.245C525.288 342.792 526.322 343.338 527.387 343.902C547.358 355.002 565.044 370.631 578.255 389.245C579.022 390.319 579.789 391.393 580.579 392.499C597.754 417.887 604.751 444.686 604.688 475.003C604.693 476.964 604.698 478.925 604.704 480.886C604.713 484.972 604.711 489.058 604.701 493.144C604.692 497.284 604.698 501.424 604.721 505.565C604.967 550.416 604.967 550.416 600.255 568.245C600.087 568.908 599.92 569.572 599.748 570.255C598.737 574.194 597.532 578.032 596.192 581.87C595.807 582.992 595.422 584.114 595.025 585.27C583.196 618.522 560.508 645.765 531.255 665.245C530.591 665.69 529.928 666.135 529.244 666.593C489.285 693.06 438.891 703.42 391.499 703.386C389.533 703.39 389.533 703.39 387.527 703.395C383.932 703.403 380.336 703.405 376.741 703.405C372.846 703.407 368.952 703.415 365.057 703.422C356.563 703.435 348.07 703.441 339.576 703.445C334.263 703.448 328.951 703.452 323.638 703.457C308.901 703.469 294.163 703.479 279.426 703.483C278.015 703.483 278.015 703.483 276.575 703.484C275.161 703.484 275.161 703.484 273.718 703.484C271.807 703.485 269.897 703.485 267.986 703.486C266.565 703.486 266.565 703.486 265.115 703.486C249.759 703.49 234.404 703.508 219.049 703.531C203.247 703.555 187.446 703.567 171.644 703.568C162.787 703.569 153.93 703.575 145.072 703.593C137.532 703.609 129.991 703.614 122.451 703.605C118.61 703.601 114.77 703.602 110.93 703.616C79.9731 703.724 53.3959 700.439 29.2547 679.245C28.4941 678.58 27.7336 677.915 26.95 677.23C10.8037 662.145 1.51627 639.285 0.0703534 617.464C0.0036367 614.669 -0.00668063 611.881 0.00856708 609.086C0.00625939 608.025 0.00395171 606.965 0.00157409 605.872C-0.00369805 602.336 0.00523502 598.8 0.0141537 595.265C0.0132811 592.697 0.011529 590.129 0.00897537 587.561C0.00484314 581.988 0.00808929 576.415 0.0162518 570.842C0.0283551 562.555 0.0289203 554.268 0.0271678 545.981C0.0245439 532.039 0.0312081 518.097 0.0432026 504.155C0.0550448 490.355 0.0627362 476.554 0.0649083 462.754C0.0650457 461.895 0.0651832 461.036 0.0653249 460.152C0.0660015 455.791 0.0666043 451.43 0.0671786 447.068C0.0713772 416.195 0.0848456 385.321 0.103784 354.447C0.122158 324.458 0.136323 294.468 0.144799 264.479C0.145063 263.554 0.145326 262.629 0.145597 261.676C0.148234 252.39 0.150785 243.103 0.153274 233.816C0.158346 214.899 0.163989 195.981 0.169976 177.064C0.170251 176.194 0.170526 175.324 0.170809 174.428C0.189204 116.367 0.220935 58.3062 0.254663 0.245277Z" fill="#FE3715"/>
<path d="M267.748 125.052C269.436 125.028 269.436 125.028 271.157 125.004C276.291 124.959 281.425 124.918 286.559 124.895C289.27 124.882 291.979 124.854 294.689 124.813C298.594 124.754 302.498 124.737 306.403 124.722C307.615 124.699 308.826 124.676 310.075 124.653C318.439 124.674 318.439 124.674 322.523 127.533C324.86 131.194 324.881 134.359 324.692 138.558C324.683 139.64 324.683 139.64 324.675 140.743C324.59 144.522 324.159 147.838 323.094 151.468C322.17 155.627 322.346 156.756 324.38 160.37C339.161 189.611 334.282 226.201 324.505 256.308C317.957 275.58 308.13 292.947 294.993 308.476C292.995 311.032 292.995 311.032 293.482 313.563C294.342 316.547 295.498 319.141 296.871 321.927C297.426 323.06 297.981 324.193 298.553 325.36C299.171 326.606 299.789 327.852 300.407 329.098C301.057 330.417 301.706 331.736 302.354 333.056C304.481 337.378 306.622 341.695 308.762 346.011C309.499 347.498 310.236 348.986 310.973 350.473C314.038 356.657 317.105 362.84 320.181 369.018C324.589 377.871 328.978 386.732 333.342 395.606C336.414 401.848 339.505 408.079 342.612 414.304C344.466 418.022 346.312 421.744 348.137 425.476C349.853 428.984 351.593 432.479 353.352 435.966C353.994 437.248 354.626 438.534 355.25 439.825C356.101 441.586 356.988 443.329 357.876 445.072C358.362 446.052 358.849 447.033 359.35 448.043C361.184 450.579 361.184 450.579 364.778 451.194C368.373 451.576 368.373 451.576 371.255 449.245C372.671 441.193 368.63 435.132 364.942 428.183C363.756 425.902 362.572 423.619 361.391 421.335C361.074 420.725 360.757 420.114 360.431 419.486C357.031 412.899 353.862 406.205 350.678 399.511C345.543 388.723 340.285 377.995 335.018 367.27C333.359 363.891 331.701 360.51 330.044 357.13C328.971 354.943 327.898 352.756 326.825 350.569C326.338 349.578 325.852 348.586 325.351 347.564C324.886 346.618 324.421 345.672 323.943 344.697C323.497 343.789 323.051 342.881 322.592 341.946C320.846 338.42 319.06 334.914 317.264 331.413C311.754 319.584 311.795 305.837 315.992 293.737C321.27 279.761 331.591 271.03 344.692 264.558C346.151 263.817 346.151 263.817 347.64 263.061C350.838 261.441 354.046 259.843 357.255 258.245C359.069 257.335 360.882 256.423 362.695 255.511C369.538 252.069 376.393 248.649 383.255 245.245C383.596 242.117 383.596 242.117 381.235 240.081C380.313 239.269 379.392 238.457 378.442 237.62C377.949 237.182 377.455 236.744 376.947 236.293C373.538 233.291 370.036 230.414 366.505 227.558C356.59 219.481 356.59 219.481 354.255 216.245C354.005 213.558 354.005 213.558 355.255 211.245C358.581 208.017 364.451 203.245 369.255 203.245C369.244 202.455 369.234 201.664 369.223 200.85C369.181 197.211 369.155 193.572 369.13 189.933C369.113 188.689 369.096 187.446 369.079 186.165C369.003 171.68 370.79 159.948 381.255 149.245C391.9 140.909 401.982 138.853 415.255 140.245C424.451 142.252 432.315 148.061 437.63 155.745C442.669 163.953 444.412 171.077 444.368 180.707C444.368 181.547 444.368 182.387 444.369 183.251C444.368 186.016 444.36 188.781 444.352 191.546C444.35 193.467 444.349 195.388 444.348 197.309C444.344 202.358 444.334 207.406 444.323 212.455C444.313 217.61 444.309 222.764 444.303 227.919C444.293 238.028 444.276 248.137 444.255 258.245C443.595 258.574 442.936 258.902 442.257 259.241C435.948 262.385 429.641 265.531 423.335 268.679C420.095 270.297 416.855 271.913 413.614 273.528C395.399 282.599 395.399 282.599 377.305 291.909C376.19 292.49 376.19 292.49 375.052 293.083C370.947 295.25 366.931 297.401 363.255 300.245C362.588 303.83 362.588 303.83 363.255 307.245C365.104 309.504 365.104 309.504 367.925 309.577C371.947 309.176 374.996 307.77 378.529 305.941C379.231 305.589 379.932 305.238 380.655 304.877C382.961 303.719 385.258 302.545 387.555 301.37C389.158 300.562 390.761 299.755 392.365 298.949C396.577 296.829 400.782 294.695 404.985 292.557C410.106 289.955 415.236 287.369 420.365 284.782C424.351 282.77 428.337 280.756 432.318 278.734C433.047 278.364 433.776 277.995 434.528 277.614C435.895 276.921 437.262 276.226 438.628 275.53C443.142 273.245 443.142 273.245 444.255 273.245C444.255 280.175 444.255 287.105 444.255 294.245C434.353 299.505 424.435 304.7 414.387 309.675C413.484 310.123 412.58 310.571 411.648 311.033C407.945 312.866 404.24 314.697 400.533 316.521C397.773 317.879 395.018 319.245 392.262 320.612C391.429 321.02 390.596 321.427 389.737 321.847C385.55 323.931 381.62 325.927 378.255 329.245C377.671 332.83 377.671 332.83 378.255 336.245C380.212 338.658 380.212 338.658 383.891 338.366C391.559 337.312 398.343 332.922 405.067 329.308C406.54 328.53 408.014 327.754 409.489 326.98C412.403 325.449 415.314 323.913 418.222 322.371C423.512 319.574 428.842 316.862 434.192 314.183C435.405 313.567 435.405 313.567 436.643 312.939C442.016 310.245 442.016 310.245 444.255 310.245C444.255 317.175 444.255 324.105 444.255 331.245C433.24 337.092 422.2 342.84 410.994 348.313C399.709 353.019 399.709 353.019 391.942 361.37C392.292 364.593 393.031 365.932 395.255 368.245C401.497 367.773 406.101 365.637 411.618 362.773C412.491 362.33 413.364 361.888 414.264 361.432C417.037 360.025 419.802 358.605 422.567 357.183C425.351 355.76 428.136 354.339 430.924 352.923C432.655 352.043 434.383 351.159 436.109 350.269C436.887 349.872 437.665 349.475 438.467 349.065C439.494 348.537 439.494 348.537 440.543 347.998C442.255 347.245 442.255 347.245 444.255 347.245C444.255 362.425 444.255 377.605 444.255 393.245C432.88 398.62 432.88 398.62 429.296 400.305C428.367 400.747 427.438 401.189 426.481 401.644C425.052 402.319 425.052 402.319 423.593 403.008C421.15 404.154 421.15 404.154 419.255 406.245C419.63 406.744 420.005 407.243 420.391 407.757C429.797 420.953 433.799 437.118 432.255 453.245C428.953 472.56 420.367 487.751 404.755 499.683C399.553 503.244 394.194 506.123 388.255 508.245C387.177 508.636 387.177 508.636 386.077 509.034C378.085 511.595 370.369 511.706 362.063 511.636C359.731 511.62 357.4 511.636 355.067 511.655C353.578 511.653 352.088 511.65 350.598 511.644C349.905 511.65 349.211 511.656 348.496 511.662C345.595 511.62 343.695 511.56 341.296 509.845C340.255 508.245 340.255 508.245 340.255 506.245C339.265 506.245 338.275 506.245 337.255 506.245C336.833 506.983 336.411 507.722 335.976 508.482C335.05 510.103 334.124 511.724 333.197 513.345C331.404 516.482 329.612 519.621 327.825 522.763C324.416 528.752 320.987 534.724 317.45 540.64C316.886 541.593 316.321 542.547 315.74 543.53C314.685 545.309 313.617 547.082 312.535 548.846C312.069 549.638 311.602 550.429 311.122 551.245C310.71 551.926 310.299 552.607 309.875 553.308C309.017 555.292 309.017 555.292 310.071 557.388C310.462 558.001 310.852 558.614 311.255 559.245C315.723 566.42 316.617 573.298 314.712 581.616C312.378 588.437 308.549 592.603 302.493 596.241C298.852 597.874 295.208 598.145 291.255 598.245C290.914 599.328 290.914 599.328 290.567 600.433C287.997 605.941 283.379 609.193 278.255 612.245C272.007 614.266 264.061 614.451 258.005 611.808C252.136 608.346 247.579 603.052 244.692 596.933C243.918 590.406 244.657 583.96 246.067 577.558C246.266 574.045 245.828 572.987 244.317 569.933C241.467 564.052 241.073 558.884 243.102 552.636C246.747 544.481 252.009 539.544 260.255 536.245C264.215 535.915 268.175 535.585 272.255 535.245C277.205 524.355 282.155 513.465 287.255 502.245C282.8 500.76 282.8 500.76 278.255 499.245C264.376 493.633 256.129 485.027 250.255 471.245C248.14 464.664 248.012 458.624 248.13 451.745C248.139 450.732 248.148 449.719 248.157 448.675C248.18 446.198 248.213 443.722 248.255 441.245C247.507 441.188 246.759 441.13 245.989 441.071C244.697 440.972 244.697 440.972 243.38 440.87C242.475 440.801 241.57 440.731 240.637 440.659C236.122 440.107 231.704 439.183 227.255 438.245C226.504 442.287 225.754 446.329 225.005 450.37C224.779 451.583 224.554 452.796 224.322 454.046C223.221 459.983 222.129 465.922 221.067 471.866C220.887 472.872 220.707 473.878 220.521 474.915C220.182 476.814 219.845 478.714 219.511 480.615C219.36 481.464 219.208 482.312 219.052 483.187C218.856 484.296 218.856 484.296 218.656 485.427C218.255 487.245 218.255 487.245 217.255 489.245C210.929 488.532 204.723 487.454 198.473 486.249C197.46 486.056 196.448 485.862 195.404 485.662C193.272 485.254 191.141 484.845 189.01 484.434C185.765 483.81 182.52 483.19 179.274 482.571C177.195 482.173 175.115 481.774 173.036 481.374C171.593 481.099 171.593 481.099 170.122 480.818C164.782 479.786 159.524 478.592 154.255 477.245C151.583 476.659 151.583 476.659 149.255 477.245C148.419 478.328 148.419 478.328 147.567 479.433C143.392 484.511 138.282 486.817 131.805 487.734C124.204 488.021 118.145 487.303 112.255 482.245C109.472 479.162 107.113 475.963 105.255 472.245C103.34 471.48 103.34 471.48 101.067 470.87C93.3526 468.421 88.7175 464.492 84.6687 457.511C82.0239 451.403 82.2426 444.223 83.8758 437.804C86.6309 431.547 91.9654 426.89 98.0047 423.87C101.255 423.245 101.255 423.245 103.977 423.198C110.118 423.043 113.589 422.58 118.192 418.308C118.861 417.598 119.53 416.887 120.22 416.155C125.113 411.562 130.643 411.808 137.036 411.944C145.169 412.705 149.367 416.945 154.591 422.929C158.003 427.679 158.482 431.449 158.255 437.245C159.43 437.348 160.606 437.452 161.817 437.558C167.621 438.187 173.292 439.42 178.997 440.624C182.193 441.339 182.193 441.339 185.255 441.245C184.385 440.389 184.385 440.389 183.497 439.515C172.5 428.101 168.926 416.465 168.872 400.874C169.14 387.895 175.497 377.567 184.126 368.218C195.187 357.709 208.288 354.89 223.005 354.933C224.127 354.917 225.25 354.901 226.407 354.884C227.486 354.883 228.565 354.883 229.677 354.882C231.14 354.878 231.14 354.878 232.633 354.873C235.255 355.245 235.255 355.245 239.255 358.245C232.985 345.705 226.715 333.165 220.255 320.245C216.06 321.084 213.584 321.907 209.887 323.8C208.848 324.327 207.808 324.854 206.737 325.398C205.075 326.25 205.075 326.25 203.38 327.12C201.039 328.307 198.698 329.492 196.356 330.675C195.764 330.975 195.172 331.274 194.562 331.583C187.758 335.017 180.88 338.291 173.993 341.553C172.264 342.373 170.538 343.199 168.814 344.031C167.026 344.879 165.223 345.695 163.408 346.485C162.498 346.897 161.587 347.309 160.649 347.734C159.825 348.092 159.001 348.451 158.152 348.821C156.002 350.129 156.002 350.129 155.575 352.815C155.482 354.652 155.436 356.492 155.427 358.331C155.085 364.119 152.442 369.071 148.356 373.132C140.903 379.029 133.62 380.148 124.255 379.245C122.226 378.306 120.216 377.319 118.255 376.245C115.193 376.481 112.993 376.876 110.255 378.245C101.456 379.071 95.2001 378.273 88.3172 372.667C83.3934 368.113 80.6293 363.902 79.9422 357.194C79.6912 350.396 79.9282 344.707 84.2547 339.245C87.2813 336.177 90.3763 333.184 94.2547 331.245C94.737 329.407 95.1405 327.548 95.5047 325.683C97.3926 317.774 100.588 312.743 107.442 308.308C113.47 304.8 119.713 304.177 126.512 305.777C130.726 307.25 133.918 309.221 137.255 312.245C141.032 310.904 143.866 309.223 147.02 306.761C147.911 306.073 148.802 305.384 149.72 304.675C151.098 303.596 151.098 303.596 152.505 302.495C158.937 297.485 165.393 292.656 172.255 288.245C171.653 285.238 170.745 283.214 168.954 280.734C168.478 280.067 168.001 279.401 167.511 278.714C166.734 277.647 166.734 277.647 165.942 276.558C164.84 275.021 163.739 273.485 162.637 271.948C162.073 271.165 161.509 270.382 160.928 269.575C158.859 266.695 156.82 263.795 154.782 260.893C150.199 254.368 145.56 247.887 140.88 241.433C136.044 234.755 131.253 228.048 126.505 221.308C125.896 220.449 125.287 219.59 124.659 218.705C124.098 217.905 123.536 217.105 122.958 216.28C122.21 215.219 122.21 215.219 121.447 214.136C120.255 212.245 120.255 212.245 119.255 209.245C118.722 209.403 118.19 209.56 117.641 209.722C110.847 211.212 103.504 211.397 97.2547 208.12C91.4684 204.358 87.9644 199.604 85.2547 193.245C84.8914 189.737 84.8914 189.737 84.9422 186.12C84.946 184.921 84.9499 183.723 84.9539 182.487C85.2365 179.441 85.7636 177.843 87.2547 175.245C86.9873 172.572 86.1515 171.084 84.6922 168.808C82.0495 162.259 82.2083 154.46 84.4422 147.745C87.8585 141.148 94.1415 135.616 101.255 133.245C108.735 132.497 114.816 133.242 121.255 137.245C124.435 139.952 126.674 142.364 128.255 146.245C129.956 146.122 129.956 146.122 131.692 145.995C138.12 146.007 143.267 148.522 148.067 152.683C149.15 153.951 149.15 153.951 150.255 155.245C151.337 156.452 151.337 156.452 152.442 157.683C156.29 163.123 157.014 168.745 156.255 175.245C155.415 177.997 154.341 180.575 153.255 183.245C153.255 188.484 155.654 190.453 159.005 194.12C160.206 195.469 161.406 196.818 162.606 198.167C163.218 198.848 163.829 199.53 164.459 200.232C167.143 203.241 169.763 206.303 172.38 209.37C172.871 209.944 173.362 210.518 173.868 211.11C182.409 221.09 190.862 231.141 199.255 241.245C199.69 240.654 200.126 240.062 200.575 239.452C207.13 230.755 212.894 225.691 223.755 223.558C224.58 223.455 225.405 223.352 226.255 223.245C225.739 222.379 225.223 221.513 224.692 220.62C222.978 216.597 222.805 215.354 224.255 211.245C226.935 207.294 229.878 203.622 233.255 200.245C236.077 199.974 236.077 199.974 239.661 199.937C240.963 199.912 242.265 199.886 243.606 199.861C245.668 199.832 247.73 199.808 249.793 199.789C261.855 199.786 261.855 199.786 273.255 196.245C274.931 193.775 274.931 193.775 275.255 191.245C275.585 190.915 275.915 190.585 276.255 190.245C276.531 188.214 276.531 188.214 276.567 185.87C276.605 185.079 276.642 184.287 276.68 183.472C276.457 181.114 276.457 181.114 274.517 179.63C271.953 178.061 270.603 177.868 267.626 177.861C266.715 177.85 265.804 177.84 264.865 177.83C263.889 177.833 262.913 177.836 261.907 177.839C260.899 177.828 259.891 177.817 258.852 177.806C254.539 177.76 250.227 177.749 245.915 177.734C242.766 177.718 239.618 177.685 236.469 177.652C235.491 177.655 234.513 177.658 233.505 177.661C232.598 177.651 231.69 177.64 230.754 177.63C229.956 177.628 229.157 177.626 228.335 177.624C225.701 177.144 224.822 176.394 223.255 174.245C222.944 171.422 222.81 168.824 222.821 165.999C222.816 165.192 222.811 164.384 222.805 163.552C222.799 161.845 222.8 160.138 222.809 158.431C222.817 155.82 222.788 153.213 222.757 150.603C222.755 148.943 222.756 147.284 222.759 145.624C222.747 144.845 222.736 144.066 222.725 143.263C222.768 139.913 222.976 137.671 224.83 134.84C227.925 132.804 230.959 132.05 234.54 131.359C235.237 131.211 235.935 131.064 236.653 130.912C238.872 130.446 241.094 130.002 243.317 129.558C245.543 129.099 247.767 128.635 249.992 128.171C251.373 127.885 252.755 127.602 254.138 127.323C265.18 125.086 265.18 125.086 267.748 125.052Z" fill="#FEFDFD"/>
<path d="M205.63 158.237C209.109 160.297 212.457 162.538 214.255 166.245C214.692 169.308 214.692 169.308 214.255 172.245C212.567 174.183 212.567 174.183 210.255 175.245C207.63 175.183 207.63 175.183 205.255 174.245C204.987 173.585 204.718 172.925 204.442 172.245C203.468 170.086 203.468 170.086 201.466 169.726C197.928 169.243 195.697 169.098 192.255 170.245C191.735 175.534 191.735 175.534 193.63 180.183C196.525 182.076 198.316 182.376 201.749 182.403C203.145 182.418 203.145 182.418 204.57 182.434C206.083 182.445 206.083 182.445 207.626 182.456C209.748 182.484 211.869 182.513 213.991 182.542C217.347 182.583 220.702 182.62 224.058 182.647C227.289 182.674 230.52 182.72 233.751 182.769C235.26 182.774 235.26 182.774 236.8 182.779C238.202 182.803 238.202 182.803 239.631 182.829C240.454 182.837 241.276 182.845 242.123 182.853C244.758 183.338 245.653 184.13 247.255 186.245C247.63 188.745 247.63 188.745 247.255 191.245C245.62 193.437 244.726 194.164 242.005 194.633C241.127 194.638 240.248 194.644 239.344 194.649C238.345 194.662 237.347 194.675 236.319 194.688C235.24 194.685 234.162 194.682 233.052 194.679C231.94 194.684 230.829 194.689 229.684 194.695C227.331 194.701 224.977 194.7 222.623 194.691C219.032 194.683 215.443 194.712 211.852 194.743C209.565 194.745 207.277 194.744 204.989 194.741C203.384 194.758 203.384 194.758 201.747 194.775C195.352 194.716 191.461 194.039 186.255 190.245C180.719 184.41 179.777 178.952 179.95 171.12C180.462 166.285 182.354 163.922 185.915 160.78C191.83 156.396 198.75 155.363 205.63 158.237Z" fill="#FEFBFB"/>
<path d="M407.317 172.808C410.255 173.245 410.255 173.245 411.92 174.317C413.931 177.223 413.625 180.134 413.548 183.538C413.543 184.244 413.539 184.95 413.535 185.678C413.518 187.93 413.48 190.181 413.442 192.433C413.427 193.961 413.413 195.489 413.401 197.017C413.368 200.76 413.316 204.502 413.255 208.245C409.808 207.672 407.033 206.807 403.942 205.183C403.245 204.821 402.547 204.458 401.829 204.085C401.309 203.808 400.79 203.531 400.255 203.245C400.139 198.995 400.067 194.746 400.005 190.495C399.971 189.289 399.938 188.082 399.903 186.839C399.89 185.679 399.877 184.519 399.864 183.323C399.843 182.255 399.822 181.187 399.801 180.086C400.542 175.445 402.724 173.464 407.317 172.808Z" fill="#E53310"/>
<path d="M286.255 145.245C289.63 147.37 289.63 147.37 291.255 150.245C291.817 153.308 291.817 153.308 291.255 156.245C289.72 158.398 289.72 158.398 287.255 160.245C284.424 160.646 282.071 160.807 279.255 160.745C278.543 160.761 277.832 160.776 277.098 160.792C273.608 160.766 271.612 160.513 268.79 158.398C267.255 156.245 267.255 156.245 266.692 153.308C267.255 150.245 267.255 150.245 268.88 147.37C274.338 143.934 279.992 144.319 286.255 145.245Z" fill="#E63B19"/>
</svg>
